# xmcd
#
# Track frame offsets:
#  150
#  20361
#  40162
#  55201
#  68514
#  89477
#  106238
#  123065
#  141628
#  160489
#  178734
#  200745
#  220120
#  235083
#  251468
#  270468
#
# Disc length: 3835 seconds
#
# Revision: 0
# Processed by: cddbd v1.5.2PL0 Copyright (c) Steve Scherf et al.
# Submitted via: AltoMP3_Maker 3.0
#
DISCID=e10ef910
DTITLE=台語勁爆 - 台語勁爆
DYEAR=1900
DGENRE=
TTITLE0=茫茫到深更
TTITLE1=野草亦是花
TTITLE2=用生命所愛的人
TTITLE3=細妹按靚
TTITLE4=多情多怨嘆
TTITLE5=愛難忘情難忘
TTITLE6=愛拼才會贏
TTITLE7=夢中的愛
TTITLE8=嫁妝
TTITLE9=雲中月
TTITLE10=雙人枕頭
TTITLE11=落山風
TTITLE12=真情真愛都騙人
TTITLE13=酒醉黑白話
TTITLE14=大船入港
TTITLE15=我沒醉是心塊醉
EXTD=
EXTT0=
EXTT1=
EXTT2=
EXTT3=
EXTT4=
EXTT5=
EXTT6=
EXTT7=
EXTT8=
EXTT9=
EXTT10=
EXTT11=
EXTT12=
EXTT13=
EXTT14=
EXTT15=
PLAYORDER=
